<svg width="480" height="480" viewBox="0 0 480 480" fill="none" xmlns="http://www.w3.org/2000/svg">
<rect width="480" height="480" fill="#0B2F9F"/>
<g clip-path="url(#clip0_112_204)">
<path d="M158.54 204.98C163.87 210.31 166.54 212.98 169.85 212.98C173.16 212.98 175.83 210.31 181.17 204.98L218.08 168.07C228.63 157.52 233.97 152.19 240.5 152.08C247.03 152.19 252.36 157.52 262.92 168.07L299.83 204.98C305.16 210.31 307.83 212.98 311.15 212.98C314.47 212.98 317.13 210.31 322.46 204.98L335.19 192.25C340.52 186.92 343.19 184.25 343.19 180.94C343.19 177.63 340.52 174.96 335.19 169.63L263.06 97.5C252.43 86.87 247.1 81.54 240.5 81.5C233.9 81.54 228.57 86.87 217.94 97.5L145.81 169.62C140.48 174.95 137.81 177.62 137.81 180.93C137.81 184.24 140.48 186.91 145.81 192.24L158.54 204.97V204.98Z" fill="white"/>
<path d="M367.92 202.99C367.7 202.63 366.94 201.87 366.58 201.65C365.62 201.07 365.38 201.07 364.89 201.07C361.58 201.07 358.91 203.74 353.58 209.07L322.61 240.04C317.28 245.37 314.61 248.04 311.3 248.04C307.99 248.04 305.32 245.37 299.99 240.04L258.12 198.18C252.18 192.24 249.22 189.27 245.83 188.07C244.15 187.47 242.4 187.16 240.65 187.14H240.37C238.62 187.16 236.86 187.47 235.19 188.07C231.81 189.28 228.84 192.25 222.9 198.18L181.03 240.04C175.7 245.37 173.03 248.04 169.72 248.04C166.41 248.04 163.74 245.37 158.41 240.04L127.44 209.07C122.11 203.74 119.44 201.07 116.13 201.07C115.64 201.07 115.4 201.07 114.44 201.65C114.08 201.87 113.32 202.63 113.1 202.99C112.52 203.95 112.52 204.63 112.52 206V261.54C112.52 263.18 112.52 263.99 112.82 264.73C113.12 265.46 113.7 266.04 114.86 267.2L151.91 304.25C157.85 310.19 160.81 313.15 164.2 314.36C165.99 315 167.86 315.31 169.73 315.29C171.6 315.31 173.48 315 175.27 314.36C178.65 313.15 181.62 310.18 187.56 304.25L229.42 262.39C234.64 257.17 237.31 254.51 240.52 254.4C243.74 254.51 246.4 257.17 251.62 262.39L293.48 304.25C299.42 310.19 302.38 313.15 305.77 314.36C307.56 315 309.43 315.31 311.31 315.29C313.18 315.31 315.06 315 316.84 314.36C320.22 313.15 323.19 310.18 329.13 304.25L366.18 267.2C367.34 266.04 367.91 265.47 368.22 264.73C368.52 264 368.52 263.18 368.52 261.54V206C368.52 204.63 368.52 203.94 367.94 202.99H367.92Z" fill="white"/>
</g>
<path d="M358.495 398.338C357.667 398.338 356.995 397.666 356.995 396.838V350.453C356.995 349.743 357.493 349.128 358.192 349C360.15 348.643 362.223 348.385 364.411 348.226C367.051 347.986 369.403 347.866 371.467 347.866C378.811 347.866 384.403 349.186 388.243 351.826C392.131 354.466 394.075 358.642 394.075 364.354C394.075 368.29 393.187 371.506 391.411 374.002C389.635 376.45 387.019 378.25 383.563 379.402C380.155 380.506 376.003 381.058 371.107 381.058H368.359C367.531 381.058 366.859 381.729 366.859 382.558V396.838C366.859 397.666 366.188 398.338 365.359 398.338H358.495ZM366.859 371.134C366.859 371.962 367.531 372.634 368.359 372.634H370.963C373.747 372.634 376.099 372.394 378.019 371.914C379.987 371.434 381.451 370.594 382.411 369.394C383.419 368.194 383.923 366.49 383.923 364.282C383.923 362.17 383.419 360.538 382.411 359.386C381.403 358.234 379.987 357.442 378.163 357.01C376.387 356.53 374.347 356.29 372.043 356.29C371.035 356.29 370.075 356.338 369.163 356.434C368.839 356.451 368.533 356.468 368.245 356.485C367.463 356.531 366.859 357.183 366.859 357.967V371.134Z" fill="white"/>
<path d="M294.584 398.338C293.728 398.338 293.046 397.623 293.087 396.767C293.26 393.171 293.451 389.446 293.66 385.594C293.948 381.178 294.236 376.762 294.524 372.346C294.86 367.93 295.22 363.682 295.604 359.602C295.94 356.036 296.312 352.746 296.721 349.73C296.821 348.991 297.455 348.442 298.201 348.442H305.315C305.855 348.442 306.354 348.731 306.614 349.204C307.505 350.819 308.467 352.701 309.5 354.85C310.7 357.346 311.948 360.034 313.244 362.914C314.588 365.794 315.908 368.698 317.204 371.626C317.967 373.35 318.689 375 319.369 376.574C319.89 377.78 321.6 377.792 322.125 376.587C322.811 375.009 323.523 373.355 324.26 371.626C325.556 368.698 326.852 365.794 328.148 362.914C329.492 360.034 330.764 357.346 331.964 354.85C333.033 352.713 333.996 350.839 334.854 349.23C335.113 348.743 335.62 348.442 336.171 348.442H342.831C343.578 348.442 344.211 348.991 344.312 349.73C344.72 352.746 345.093 356.036 345.428 359.602C345.812 363.682 346.148 367.93 346.436 372.346C346.772 376.762 347.06 381.178 347.3 385.594C347.551 389.446 347.766 393.171 347.944 396.768C347.987 397.623 347.304 398.338 346.448 398.338H339.887C339.081 398.338 338.42 397.701 338.387 396.896C338.256 393.658 338.107 390.346 337.94 386.962C337.796 383.074 337.604 379.138 337.364 375.154C337.263 373.023 337.141 370.919 336.999 368.841C336.901 367.396 334.935 367.065 334.34 368.386V368.386C333.476 370.306 332.54 372.37 331.532 374.578C330.572 376.738 329.612 378.898 328.652 381.058C327.74 383.17 326.876 385.162 326.06 387.034C325.43 388.479 324.886 389.752 324.428 390.853C324.194 391.417 323.645 391.786 323.036 391.786H317.963C317.37 391.786 316.833 391.437 316.593 390.895C316.102 389.784 315.538 388.497 314.9 387.034C314.132 385.162 313.268 383.17 312.308 381.058C311.348 378.898 310.388 376.738 309.428 374.578C308.468 372.37 307.556 370.306 306.692 368.386V368.386C306.098 367.065 304.124 367.395 304.017 368.84C303.863 370.918 303.723 373.022 303.596 375.154C303.356 379.138 303.164 383.074 303.02 386.962C302.895 390.346 302.77 393.658 302.644 396.896C302.613 397.701 301.951 398.338 301.146 398.338H294.584Z" fill="white"/>
<path d="M242.142 398.338C241.104 398.338 240.38 397.309 240.731 396.333C243 390.019 245.112 384.255 247.067 379.042C249.227 373.234 251.339 367.858 253.403 362.914C255.388 358.224 257.435 353.682 259.547 349.288C259.796 348.77 260.32 348.442 260.895 348.442H268.299C268.876 348.442 269.402 348.773 269.65 349.294C271.187 352.529 272.683 355.845 274.139 359.242C275.723 362.89 277.307 366.706 278.891 370.69C280.475 374.674 282.107 378.946 283.787 383.506C285.297 387.491 286.863 391.77 288.483 396.342C288.828 397.316 288.104 398.338 287.07 398.338H279.765C279.115 398.338 278.54 397.919 278.334 397.303C277.808 395.736 277.25 394.185 276.659 392.65C276.108 391.075 275.573 389.5 275.054 387.926C274.851 387.308 274.275 386.89 273.625 386.89H255.259C254.622 386.89 254.055 387.293 253.842 387.894C253.28 389.479 252.702 391.064 252.107 392.65C251.56 394.174 251.045 395.714 250.561 397.271C250.365 397.903 249.782 398.338 249.119 398.338H242.142ZM257.256 377.062C256.915 378.031 257.639 379.042 258.666 379.042H270.172C271.2 379.042 271.923 378.031 271.582 377.062C271.043 375.527 270.503 374.051 269.963 372.634C269.195 370.57 268.451 368.674 267.731 366.946C267.059 365.17 266.435 363.586 265.859 362.194C265.84 362.146 265.821 362.099 265.802 362.051C265.292 360.778 263.463 360.802 262.955 362.075C262.939 362.115 262.923 362.154 262.907 362.194C262.379 363.586 261.755 365.17 261.035 366.946C260.363 368.674 259.643 370.57 258.875 372.634C258.336 374.051 257.796 375.527 257.256 377.062Z" fill="white"/>
<path d="M221.002 399.346C215.866 399.346 211.474 398.338 207.826 396.322C204.178 394.306 201.394 391.354 199.474 387.466C197.554 383.578 196.594 378.874 196.594 373.354C196.594 369.226 197.218 365.554 198.466 362.338C199.762 359.074 201.538 356.338 203.794 354.13C206.05 351.874 208.69 350.17 211.714 349.018C214.738 347.866 218.002 347.29 221.506 347.29C224.29 347.29 226.714 347.53 228.778 348.01C230.842 348.49 232.522 349.018 233.818 349.594C234.556 349.91 235.17 350.197 235.662 350.455C236.252 350.765 236.471 351.466 236.244 352.093L234.349 357.353C234.034 358.227 233.006 358.606 232.158 358.227C231.083 357.745 229.885 357.316 228.562 356.938C226.546 356.314 224.242 356.002 221.65 356.002C218.914 356.002 216.418 356.626 214.162 357.874C211.954 359.074 210.178 360.946 208.834 363.49C207.49 366.034 206.818 369.274 206.818 373.21C206.818 376.57 207.322 379.57 208.33 382.21C209.386 384.802 211.018 386.866 213.226 388.402C215.482 389.89 218.362 390.634 221.866 390.634C225.178 390.634 227.818 390.322 229.786 389.698C230.986 389.318 232.042 388.937 232.957 388.557C233.804 388.205 234.806 388.607 235.103 389.475L236.877 394.658C237.108 395.333 236.834 396.082 236.187 396.383C234.862 397.001 233.112 397.605 230.938 398.194C228.154 398.962 224.842 399.346 221.002 399.346Z" fill="white"/>
<path d="M159.013 398.338C158.184 398.338 157.513 397.666 157.513 396.838V349.942C157.513 349.113 158.184 348.442 159.013 348.442H188.629C189.457 348.442 190.129 349.113 190.129 349.942V355.222C190.129 356.05 189.457 356.722 188.629 356.722H168.877C168.048 356.722 167.377 357.393 167.377 358.222V366.67C167.377 367.498 168.048 368.17 168.877 368.17H186.109C186.937 368.17 187.609 368.841 187.609 369.67V374.806C187.609 375.634 186.937 376.306 186.109 376.306H168.877C168.048 376.306 167.377 376.977 167.377 377.806V388.558C167.377 389.386 168.048 390.058 168.877 390.058H190.357C191.185 390.058 191.857 390.729 191.857 391.558V396.838C191.857 397.666 191.185 398.338 190.357 398.338H159.013Z" fill="white"/>
<path d="M100.606 398.338C99.9608 398.338 99.3873 397.925 99.1851 397.312C98.2956 394.614 97.425 391.861 96.5733 389.05C95.6613 385.834 94.7493 382.57 93.8373 379.258C92.9733 375.946 92.1333 372.586 91.3173 369.178C90.5493 365.77 89.7813 362.338 89.0133 358.882C88.4155 356.012 87.8342 353.126 87.2695 350.224C87.0897 349.3 87.7986 348.442 88.7403 348.442H96.2337C96.9691 348.442 97.5957 348.975 97.7164 349.7C98.3378 353.437 99.0368 357.289 99.8133 361.258C100.677 365.674 101.565 369.97 102.477 374.146C103.031 376.527 103.585 378.788 104.139 380.93C104.504 382.343 106.43 382.411 106.895 381.028C107.246 379.982 107.598 378.912 107.949 377.818C108.861 375.082 109.749 372.346 110.613 369.61C111.477 366.826 112.293 364.114 113.061 361.474C113.712 359.196 114.329 357.038 114.91 355.002C115.094 354.358 115.683 353.914 116.353 353.914H122.46C123.121 353.914 123.704 354.346 123.896 354.979C124.763 357.847 125.688 360.924 126.669 364.21C127.773 367.906 128.925 371.602 130.125 375.298C130.765 377.244 131.392 379.115 132.005 380.911C132.48 382.303 134.426 382.224 134.771 380.794C135.27 378.723 135.761 376.531 136.245 374.218C137.157 370.042 138.021 365.746 138.837 361.33C139.616 357.351 140.336 353.47 140.997 349.687C141.123 348.968 141.747 348.442 142.477 348.442H149.526C150.476 348.442 151.186 349.313 150.993 350.243C150.389 353.139 149.77 356.019 149.133 358.882C148.413 362.338 147.645 365.77 146.829 369.178C146.061 372.586 145.221 375.946 144.309 379.258C143.445 382.57 142.533 385.81 141.573 388.978C140.763 391.791 139.916 394.567 139.03 397.305C138.83 397.922 138.255 398.338 137.607 398.338H130.519C129.892 398.338 129.332 397.949 129.114 397.362C128.035 394.458 126.956 391.495 125.877 388.474C124.725 385.066 123.573 381.586 122.421 378.034C121.787 375.992 121.144 373.935 120.494 371.861C120.052 370.454 118.052 370.463 117.613 371.871C116.968 373.941 116.314 375.996 115.653 378.034C114.549 381.586 113.421 385.066 112.269 388.474C111.234 391.495 110.178 394.457 109.104 397.362C108.887 397.949 108.326 398.338 107.7 398.338H100.606Z" fill="white"/>
<defs>
<clipPath id="clip0_112_204">
<rect width="256" height="233.79" fill="white" transform="translate(112.5 81.5)"/>
</clipPath>
</defs>
</svg>
