<svg width="309" height="318" viewBox="0 0 309 318" fill="none" xmlns="http://www.w3.org/2000/svg">
<g clip-path="url(#clip0_112_253)">
<path d="M72.5401 123.48C77.8701 128.81 80.5401 131.48 83.8501 131.48C87.1601 131.48 89.8301 128.81 95.1701 123.48L132.08 86.57C142.63 76.02 147.97 70.69 154.5 70.58C161.03 70.69 166.36 76.02 176.92 86.57L213.83 123.48C219.16 128.81 221.83 131.48 225.15 131.48C228.47 131.48 231.13 128.81 236.46 123.48L249.19 110.75C254.52 105.42 257.19 102.75 257.19 99.44C257.19 96.13 254.52 93.46 249.19 88.13L177.06 16C166.43 5.37 161.1 0.04 154.5 0C147.9 0.04 142.57 5.37 131.94 16L59.8101 88.12C54.4801 93.45 51.8101 96.12 51.8101 99.43C51.8101 102.74 54.4801 105.41 59.8101 110.74L72.5401 123.47V123.48Z" fill="#0B2F9F"/>
<path d="M281.92 121.49C281.7 121.13 280.94 120.37 280.58 120.15C279.62 119.57 279.38 119.57 278.89 119.57C275.58 119.57 272.91 122.24 267.58 127.57L236.61 158.54C231.28 163.87 228.61 166.54 225.3 166.54C221.99 166.54 219.32 163.87 213.99 158.54L172.12 116.68C166.18 110.74 163.22 107.77 159.83 106.57C158.15 105.97 156.4 105.66 154.65 105.64H154.37C152.62 105.66 150.86 105.97 149.19 106.57C145.81 107.78 142.84 110.75 136.9 116.68L95.03 158.54C89.7 163.87 87.03 166.54 83.72 166.54C80.41 166.54 77.74 163.87 72.41 158.54L41.44 127.57C36.11 122.24 33.44 119.57 30.13 119.57C29.64 119.57 29.4 119.57 28.44 120.15C28.08 120.37 27.32 121.13 27.1 121.49C26.52 122.45 26.52 123.13 26.52 124.5V180.04C26.52 181.68 26.52 182.49 26.82 183.23C27.12 183.96 27.7 184.54 28.86 185.7L65.91 222.75C71.85 228.69 74.81 231.65 78.2 232.86C79.99 233.5 81.86 233.81 83.73 233.79C85.6 233.81 87.48 233.5 89.27 232.86C92.65 231.65 95.62 228.68 101.56 222.75L143.42 180.89C148.64 175.67 151.31 173.01 154.52 172.9C157.74 173.01 160.4 175.67 165.62 180.89L207.48 222.75C213.42 228.69 216.38 231.65 219.77 232.86C221.56 233.5 223.43 233.81 225.31 233.79C227.18 233.81 229.06 233.5 230.84 232.86C234.22 231.65 237.19 228.68 243.13 222.75L280.18 185.7C281.34 184.54 281.91 183.97 282.22 183.23C282.52 182.5 282.52 181.68 282.52 180.04V124.5C282.52 123.13 282.52 122.44 281.94 121.49H281.92Z" fill="#0B2F9F"/>
</g>
<path d="M272.495 316.838C271.667 316.838 270.995 316.166 270.995 315.338V268.953C270.995 268.243 271.493 267.628 272.192 267.5C274.15 267.143 276.223 266.885 278.411 266.726C281.051 266.486 283.403 266.366 285.467 266.366C292.811 266.366 298.403 267.686 302.243 270.326C306.131 272.966 308.075 277.142 308.075 282.854C308.075 286.79 307.187 290.006 305.411 292.502C303.635 294.95 301.019 296.75 297.563 297.902C294.155 299.006 290.003 299.558 285.107 299.558H282.359C281.531 299.558 280.859 300.229 280.859 301.058V315.338C280.859 316.166 280.188 316.838 279.359 316.838H272.495ZM280.859 289.634C280.859 290.462 281.531 291.134 282.359 291.134H284.963C287.747 291.134 290.099 290.894 292.019 290.414C293.987 289.934 295.451 289.094 296.411 287.894C297.419 286.694 297.923 284.99 297.923 282.782C297.923 280.67 297.419 279.038 296.411 277.886C295.403 276.734 293.987 275.942 292.163 275.51C290.387 275.03 288.347 274.79 286.043 274.79C285.035 274.79 284.075 274.838 283.163 274.934C282.839 274.951 282.533 274.968 282.245 274.985C281.463 275.031 280.859 275.683 280.859 276.467V289.634Z" fill="#0B2F9F"/>
<path d="M208.584 316.838C207.728 316.838 207.046 316.123 207.087 315.267C207.26 311.671 207.451 307.946 207.66 304.094C207.948 299.678 208.236 295.262 208.524 290.846C208.86 286.43 209.22 282.182 209.604 278.102C209.94 274.536 210.312 271.246 210.721 268.23C210.821 267.491 211.455 266.942 212.201 266.942H219.315C219.855 266.942 220.354 267.231 220.614 267.704C221.505 269.319 222.467 271.201 223.5 273.35C224.7 275.846 225.948 278.534 227.244 281.414C228.588 284.294 229.908 287.198 231.204 290.126C231.967 291.85 232.689 293.5 233.369 295.074C233.89 296.28 235.6 296.292 236.125 295.087C236.811 293.509 237.523 291.855 238.26 290.126C239.556 287.198 240.852 284.294 242.148 281.414C243.492 278.534 244.764 275.846 245.964 273.35C247.033 271.213 247.996 269.339 248.854 267.73C249.113 267.243 249.62 266.942 250.171 266.942H256.831C257.578 266.942 258.211 267.491 258.312 268.23C258.72 271.246 259.093 274.536 259.428 278.102C259.812 282.182 260.148 286.43 260.436 290.846C260.772 295.262 261.06 299.678 261.3 304.094C261.551 307.946 261.766 311.671 261.944 315.268C261.987 316.123 261.304 316.838 260.448 316.838H253.887C253.081 316.838 252.42 316.201 252.387 315.396C252.256 312.158 252.107 308.846 251.94 305.462C251.796 301.574 251.604 297.638 251.364 293.654C251.263 291.523 251.141 289.419 250.999 287.341C250.901 285.896 248.935 285.565 248.34 286.886V286.886C247.476 288.806 246.54 290.87 245.532 293.078C244.572 295.238 243.612 297.398 242.652 299.558C241.74 301.67 240.876 303.662 240.06 305.534C239.43 306.979 238.886 308.252 238.428 309.353C238.194 309.917 237.645 310.286 237.036 310.286H231.963C231.37 310.286 230.833 309.937 230.593 309.395C230.102 308.284 229.538 306.997 228.9 305.534C228.132 303.662 227.268 301.67 226.308 299.558C225.348 297.398 224.388 295.238 223.428 293.078C222.468 290.87 221.556 288.806 220.692 286.886V286.886C220.098 285.565 218.124 285.895 218.017 287.34C217.863 289.418 217.723 291.522 217.596 293.654C217.356 297.638 217.164 301.574 217.02 305.462C216.895 308.846 216.77 312.158 216.644 315.396C216.613 316.201 215.951 316.838 215.146 316.838H208.584Z" fill="#0B2F9F"/>
<path d="M156.142 316.838C155.104 316.838 154.38 315.809 154.731 314.833C157 308.519 159.112 302.755 161.067 297.542C163.227 291.734 165.339 286.358 167.403 281.414C169.388 276.724 171.435 272.182 173.547 267.788C173.796 267.27 174.32 266.942 174.895 266.942H182.299C182.876 266.942 183.402 267.273 183.65 267.794C185.187 271.029 186.683 274.345 188.139 277.742C189.723 281.39 191.307 285.206 192.891 289.19C194.475 293.174 196.107 297.446 197.787 302.006C199.297 305.991 200.863 310.27 202.483 314.842C202.828 315.816 202.104 316.838 201.07 316.838H193.765C193.115 316.838 192.54 316.419 192.334 315.803C191.808 314.236 191.25 312.685 190.659 311.15C190.108 309.575 189.573 308 189.054 306.426C188.851 305.808 188.275 305.39 187.625 305.39H169.259C168.622 305.39 168.055 305.793 167.842 306.394C167.28 307.979 166.702 309.564 166.107 311.15C165.56 312.674 165.045 314.214 164.561 315.771C164.365 316.403 163.782 316.838 163.119 316.838H156.142ZM171.256 295.562C170.915 296.531 171.639 297.542 172.666 297.542H184.172C185.2 297.542 185.923 296.531 185.582 295.562C185.043 294.027 184.503 292.551 183.963 291.134C183.195 289.07 182.451 287.174 181.731 285.446C181.059 283.67 180.435 282.086 179.859 280.694C179.84 280.646 179.821 280.599 179.802 280.551C179.292 279.278 177.463 279.302 176.955 280.575C176.939 280.615 176.923 280.654 176.907 280.694C176.379 282.086 175.755 283.67 175.035 285.446C174.363 287.174 173.643 289.07 172.875 291.134C172.336 292.551 171.796 294.027 171.256 295.562Z" fill="#0B2F9F"/>
<path d="M135.002 317.846C129.866 317.846 125.474 316.838 121.826 314.822C118.178 312.806 115.394 309.854 113.474 305.966C111.554 302.078 110.594 297.374 110.594 291.854C110.594 287.726 111.218 284.054 112.466 280.838C113.762 277.574 115.538 274.838 117.794 272.63C120.05 270.374 122.69 268.67 125.714 267.518C128.738 266.366 132.002 265.79 135.506 265.79C138.29 265.79 140.714 266.03 142.778 266.51C144.842 266.99 146.522 267.518 147.818 268.094C148.556 268.41 149.17 268.697 149.662 268.955C150.252 269.265 150.471 269.966 150.244 270.593L148.349 275.853C148.034 276.727 147.006 277.106 146.158 276.727C145.083 276.245 143.885 275.816 142.562 275.438C140.546 274.814 138.242 274.502 135.65 274.502C132.914 274.502 130.418 275.126 128.162 276.374C125.954 277.574 124.178 279.446 122.834 281.99C121.49 284.534 120.818 287.774 120.818 291.71C120.818 295.07 121.322 298.07 122.33 300.71C123.386 303.302 125.018 305.366 127.226 306.902C129.482 308.39 132.362 309.134 135.866 309.134C139.178 309.134 141.818 308.822 143.786 308.198C144.986 307.818 146.042 307.437 146.957 307.057C147.804 306.705 148.806 307.107 149.103 307.975L150.877 313.158C151.108 313.833 150.834 314.582 150.187 314.883C148.862 315.501 147.112 316.105 144.938 316.694C142.154 317.462 138.842 317.846 135.002 317.846Z" fill="#0B2F9F"/>
<path d="M73.0127 316.838C72.1843 316.838 71.5127 316.166 71.5127 315.338V268.442C71.5127 267.613 72.1843 266.942 73.0127 266.942H102.629C103.457 266.942 104.129 267.613 104.129 268.442V273.722C104.129 274.55 103.457 275.222 102.629 275.222H82.8767C82.0483 275.222 81.3767 275.893 81.3767 276.722V285.17C81.3767 285.998 82.0483 286.67 82.8767 286.67H100.109C100.937 286.67 101.609 287.341 101.609 288.17V293.306C101.609 294.134 100.937 294.806 100.109 294.806H82.8767C82.0483 294.806 81.3767 295.477 81.3767 296.306V307.058C81.3767 307.886 82.0483 308.558 82.8767 308.558H104.357C105.185 308.558 105.857 309.229 105.857 310.058V315.338C105.857 316.166 105.185 316.838 104.357 316.838H73.0127Z" fill="#0B2F9F"/>
<path d="M14.6064 316.838C13.9608 316.838 13.3873 316.425 13.1851 315.812C12.2956 313.114 11.425 310.361 10.5733 307.55C9.66129 304.334 8.74929 301.07 7.83729 297.758C6.97329 294.446 6.13329 291.086 5.31729 287.678C4.54929 284.27 3.78129 280.838 3.01329 277.382C2.41549 274.512 1.83424 271.626 1.26953 268.724C1.08968 267.8 1.79857 266.942 2.7403 266.942H10.2337C10.9691 266.942 11.5957 267.475 11.7164 268.2C12.3378 271.937 13.0368 275.789 13.8133 279.758C14.6773 284.174 15.5653 288.47 16.4773 292.646C17.0311 295.027 17.5848 297.288 18.1386 299.43C18.5039 300.843 20.4296 300.911 20.8945 299.528C21.2461 298.482 21.5977 297.412 21.9493 296.318C22.8613 293.582 23.7493 290.846 24.6133 288.11C25.4773 285.326 26.2933 282.614 27.0613 279.974C27.7122 277.696 28.3286 275.538 28.9105 273.502C29.0945 272.858 29.683 272.414 30.3527 272.414H36.4605C37.1214 272.414 37.7044 272.846 37.8957 273.479C38.7633 276.347 39.6879 279.424 40.6693 282.71C41.7733 286.406 42.9253 290.102 44.1253 293.798C44.7654 295.744 45.3919 297.615 46.0048 299.411C46.4798 300.803 48.426 300.724 48.7706 299.294C49.2697 297.223 49.7613 295.031 50.2453 292.718C51.1573 288.542 52.0213 284.246 52.8373 279.83C53.6157 275.851 54.3356 271.97 54.9972 268.187C55.1229 267.468 55.7467 266.942 56.4768 266.942H63.5257C64.4755 266.942 65.1863 267.813 64.9926 268.743C64.3893 271.639 63.7695 274.519 63.1333 277.382C62.4133 280.838 61.6453 284.27 60.8293 287.678C60.0613 291.086 59.2213 294.446 58.3093 297.758C57.4453 301.07 56.5333 304.31 55.5733 307.478C54.7633 310.291 53.9155 313.067 53.0299 315.805C52.8303 316.422 52.255 316.838 51.6068 316.838H44.5186C43.8924 316.838 43.332 316.449 43.114 315.862C42.0351 312.958 40.9562 309.995 39.8773 306.974C38.7253 303.566 37.5733 300.086 36.4213 296.534C35.7867 294.492 35.1442 292.435 34.4938 290.361C34.0523 288.954 32.0519 288.963 31.6129 290.371C30.9676 292.441 30.3144 294.496 29.6533 296.534C28.5493 300.086 27.4213 303.566 26.2693 306.974C25.2336 309.995 24.1785 312.957 23.104 315.862C22.8867 316.449 22.3261 316.838 21.7 316.838H14.6064Z" fill="#0B2F9F"/>
<defs>
<clipPath id="clip0_112_253">
<rect width="256" height="233.79" fill="white" transform="translate(26.5)"/>
</clipPath>
</defs>
</svg>
