<svg preserveAspectRatio="none" width="100%" height="100%" overflow="visible" style="display: block;" viewBox="0 0 69.9136 19.976" fill="none" xmlns="http://www.w3.org/2000/svg">
<g id="Group">
<path id="Vector" d="M10.0716 2.36824C9.58662 3.30634 8.50111 3.76159 7.48951 3.46269C7.14769 3.36152 6.79663 3.30634 6.43634 3.30634C5.70651 3.30634 4.73186 3.7294 4.73186 4.57553C4.73186 5.46305 5.80813 5.80794 6.49639 6.02867L7.50799 6.33217C9.63282 6.95757 11.2772 8.02443 11.2772 10.4892C11.2772 12.0022 10.9123 13.5565 9.69748 14.5819C8.50111 15.589 6.90288 16.0167 5.36007 16.0167C3.44311 16.0167 1.56772 15.3775 0.0110505 14.2968C0.00181213 14.2876 -0.00280706 14.2738 0.00181213 14.2646L1.69243 11.1008C2.68556 11.9654 3.85883 12.6735 5.21687 12.6735C6.14995 12.6735 7.14307 12.2091 7.14307 11.1422C7.14307 10.034 5.58179 9.64771 4.73186 9.40859C2.2375 8.69581 0.597687 8.04742 0.597687 5.10436C0.597687 2.01875 2.80566 0 5.86356 0C7.39713 0 9.2679 0.478247 10.6213 1.237C10.6352 1.2416 10.6398 1.26 10.6306 1.27379L10.0716 2.36824Z" fill="var(--fill-0, black)" fill-opacity="0.4"/>
<path id="Vector_2" d="M15.6981 6.59433C15.7073 6.59433 15.7165 6.58973 15.7211 6.58053C16.5711 5.33893 17.6012 4.91587 19.0377 4.91587C21.8323 4.91587 22.9502 6.6725 22.9502 9.21089V13.4277C22.9502 14.6372 21.9663 15.612 20.7561 15.612H19.2918C19.2779 15.612 19.2641 15.5982 19.2641 15.5845V10.5675C19.2641 9.57877 19.4257 7.84513 17.6012 7.84513C16.0999 7.84513 15.675 8.95337 15.675 10.2456V13.4277C15.675 14.6372 14.6911 15.612 13.4808 15.612H12.0166C12.0027 15.612 11.9888 15.5982 11.9888 15.5845V5.29295C11.9888 5.27915 12.0027 5.26536 12.0166 5.26536H15.6519C15.6657 5.26536 15.6796 5.27915 15.6796 5.29295V6.57134C15.6703 6.58513 15.6842 6.59433 15.6981 6.59433Z" fill="var(--fill-0, black)" fill-opacity="0.4"/>
<path id="Vector_3" d="M33.5649 15.612H32.1006C32.0868 15.612 32.0729 15.5982 32.0729 15.5844V14.4854C32.0729 14.4716 32.0591 14.4578 32.0452 14.4578C32.036 14.4578 32.0267 14.4624 32.0221 14.4716C31.3754 15.4971 30.1051 15.9569 28.8949 15.9569C25.8139 15.9569 23.6475 13.3955 23.6475 10.4295C23.6475 7.46342 25.7724 4.92044 28.8534 4.92044C30.0266 4.92044 31.2553 5.3481 32.0314 6.21722C32.0452 6.23562 32.0775 6.22642 32.0775 6.19883V5.28832C32.0775 5.27453 32.0914 5.26073 32.1053 5.26073H35.7406C35.7544 5.26073 35.7683 5.27453 35.7683 5.28832V13.4277C35.7637 14.6325 34.7798 15.612 33.5649 15.612ZM27.4537 10.4479C27.4537 11.7584 28.3268 12.7701 29.8234 12.7701C31.32 12.7701 32.193 11.763 32.193 10.4479C32.193 9.17867 31.32 8.10722 29.8234 8.10722C28.3268 8.10722 27.4537 9.17867 27.4537 10.4479Z" fill="var(--fill-0, black)" fill-opacity="0.4"/>
<path id="Vector_4" d="M40.6048 6.43335C40.614 6.43335 40.6233 6.42876 40.6279 6.41956C41.2977 5.39869 42.5495 4.92044 43.7597 4.92044C46.8592 4.92044 49.0071 7.50021 49.0071 10.4663C49.0071 13.4507 46.8776 15.9523 43.8013 15.9523C42.6095 15.9523 41.3762 15.5292 40.5863 14.6279C40.5817 14.6233 40.5817 14.6279 40.5817 14.6279V17.7871C40.5817 18.9965 39.5978 19.9714 38.3876 19.9714H36.8956V5.26533H40.5817V6.41036C40.5771 6.42416 40.5909 6.43335 40.6048 6.43335ZM40.457 10.4479C40.457 11.7584 41.33 12.7701 42.8266 12.7701C44.3279 12.7701 45.1963 11.763 45.1963 10.4479C45.1963 9.17867 44.3232 8.10722 42.8266 8.10722C41.33 8.10722 40.457 9.17867 40.457 10.4479Z" fill="var(--fill-0, black)" fill-opacity="0.4"/>
<path id="Vector_5" d="M53.4092 6.43335C53.4185 6.43335 53.4277 6.42876 53.4323 6.41956C54.1021 5.39869 55.3539 4.92044 56.5641 4.92044C59.6636 4.92044 61.8115 7.50021 61.8115 10.4663C61.8115 13.4507 59.6821 15.9523 56.6057 15.9523C55.4324 15.9523 54.2222 15.543 53.4277 14.6739C53.4138 14.6555 53.3815 14.6647 53.3815 14.6923V17.7917C53.3815 19.0011 52.3976 19.976 51.1874 19.976H49.7231C49.7092 19.976 49.6954 19.9622 49.6954 19.9484V5.29292C49.6954 5.27912 49.7092 5.26533 49.7231 5.26533H53.3584C53.3723 5.26533 53.3861 5.27912 53.3861 5.29292V6.41036C53.3815 6.42416 53.3954 6.43335 53.4092 6.43335ZM53.2614 10.4479C53.2614 11.7584 54.1298 12.7701 55.631 12.7701C57.1323 12.7701 58.0007 11.763 58.0007 10.4479C58.0007 9.17867 57.1277 8.10722 55.631 8.10722C54.1344 8.10722 53.2614 9.17867 53.2614 10.4479Z" fill="var(--fill-0, black)" fill-opacity="0.4"/>
<path id="Vector_6" d="M66.1258 0.404685L63.6268 9.96042H65.7055C66.7125 9.96042 67.5901 9.28444 67.8395 8.31415L69.9136 0.404685H66.1258Z" fill="var(--fill-0, black)" fill-opacity="0.4"/>
<path id="Vector_7" fill-rule="evenodd" clip-rule="evenodd" d="M64.8738 11.3079C66.1626 11.3079 67.2065 12.3471 67.2065 13.6301C67.2065 14.9131 66.1626 15.9524 64.8738 15.9524C63.5851 15.9524 62.5411 14.9131 62.5411 13.6301C62.5411 12.3517 63.5851 11.3079 64.8738 11.3079Z" fill="var(--fill-0, black)" fill-opacity="0.4"/>
<path id="Vector_8" d="M63.7282 0.597824H63.7328L64.0238 1.39797H64.1532L64.4442 0.597824H64.4488V1.39797H64.6659V0.404685H64.3148L64.0885 0.993297L63.8622 0.404685H63.5111V1.39797H63.7282V0.597824Z" fill="var(--fill-0, black)" fill-opacity="0.4"/>
<path id="Vector_9" d="M62.846 1.39797H63.0862V0.597824H63.3911V0.404685H62.5411V0.597824H62.846V1.39797Z" fill="var(--fill-0, black)" fill-opacity="0.4"/>
</g>
</svg>
